<svg xmlns="http://www.w3.org/2000/svg" xmlns:xlink="http://www.w3.org/1999/xlink" id="Layer_1" width="34.838" height="34.639" x="0" y="0" enable-background="new 0 0 34.838 34.639" version="1.0" viewBox="0 0 34.838 34.639" xml:space="preserve"><script id="__gaOptOutExtension"/><g><defs><filter id="Adobe_OpacityMaskFilter" width="32.469" height="32.469" x="1.687" y="1.053" filterUnits="userSpaceOnUse"><feColorMatrix type="matrix" values="1 0 0 0 0 0 1 0 0 0 0 0 1 0 0 0 0 0 1 0"/></filter></defs><mask id="SVGID_1_" width="32.469" height="32.469" x="1.687" y="1.053" maskUnits="userSpaceOnUse"><g filter="url(#Adobe_OpacityMaskFilter)"><radialGradient id="SVGID_2_" cx="17.921" cy="17.288" r="16.234" gradientUnits="userSpaceOnUse"><stop offset=".33" style="stop-color:#fff"/><stop offset="1" style="stop-color:#000"/></radialGradient><circle cx="17.921" cy="17.288" r="16.234" fill="url(#SVGID_2_)"/></g></mask><radialGradient id="SVGID_3_" cx="17.921" cy="17.288" r="16.234" gradientUnits="userSpaceOnUse"><stop offset="0" style="stop-color:#f7e72e"/><stop offset="1" style="stop-color:#fff"/></radialGradient><circle cx="17.921" cy="17.288" r="16.234" fill="url(#SVGID_3_)" mask="url(#SVGID_1_)"/><defs><filter id="Adobe_OpacityMaskFilter_1_" width="82.512" height="82.594" x="-23.479" y="-23.838" filterUnits="userSpaceOnUse"><feColorMatrix type="matrix" values="1 0 0 0 0 0 1 0 0 0 0 0 1 0 0 0 0 0 1 0"/></filter></defs><mask id="SVGID_4_" width="82.512" height="82.594" x="-23.479" y="-23.838" maskUnits="userSpaceOnUse"><g filter="url(#Adobe_OpacityMaskFilter_1_)"><radialGradient id="SVGID_5_" cx="17.827" cy="17.423" r="16.846" gradientUnits="userSpaceOnUse"><stop offset="0" style="stop-color:#f2f2f2"/><stop offset=".83" style="stop-color:#000"/></radialGradient><circle cx="17.827" cy="17.423" r="16.847" fill="url(#SVGID_5_)"/></g></mask><g mask="url(#SVGID_4_)"><linearGradient id="SVGID_6_" x1="51.038" x2="27.281" y1="28.243" y2="4.487" gradientUnits="userSpaceOnUse"><stop offset="0" style="stop-color:#f8f4bd"/><stop offset="1" style="stop-color:#f6c324"/></linearGradient><polygon fill="url(#SVGID_6_)" points="59.033 13.849 59.033 21.395 17.827 17.423"/><linearGradient id="SVGID_7_" x1="-301.907" x2="-325.663" y1="224.04" y2="200.284" gradientTransform="matrix(0.9521 -0.3057 0.3057 0.9521 271.7104 -288.0294)" gradientUnits="userSpaceOnUse"><stop offset="0" style="stop-color:#f8f4bd"/><stop offset="1" style="stop-color:#f6c324"/></linearGradient><polygon fill="url(#SVGID_7_)" points="55.968 1.423 58.274 8.608 17.827 17.423"/><linearGradient id="SVGID_8_" x1="-697.614" x2="-721.369" y1="301.913" y2="278.158" gradientTransform="matrix(0.8131 -0.5821 0.5821 0.8131 442.6139 -644.6782)" gradientUnits="userSpaceOnUse"><stop offset="0" style="stop-color:#f8f4bd"/><stop offset="1" style="stop-color:#f6c324"/></linearGradient><polygon fill="url(#SVGID_8_)" points="49.251 -9.47 53.643 -3.335 17.827 17.423"/><linearGradient id="SVGID_9_" x1="-1098.857" x2="-1122.611" y1="255.212" y2="231.458" gradientTransform="matrix(0.5963 -0.8028 0.8028 0.5963 496.7917 -1036.359)" gradientUnits="userSpaceOnUse"><stop offset="0" style="stop-color:#f8f4bd"/><stop offset="1" style="stop-color:#f6c324"/></linearGradient><path fill="url(#SVGID_9_)" d="M38.414-15.981L17.827,17.423L45.583-13.29L41.3-16.472C40.335-16.328,39.375-16.164,38.414-15.981 z"/><linearGradient id="SVGID_10_" x1="-1465.425" x2="-1489.182" y1="88.61" y2="64.853" gradientTransform="matrix(0.3223 -0.9466 0.9466 0.3223 427.2014 -1426.2578)" gradientUnits="userSpaceOnUse"><stop offset="0" style="stop-color:#f8f4bd"/><stop offset="1" style="stop-color:#f6c324"/></linearGradient><path fill="url(#SVGID_10_)" d="M28.136-22.596l-0.412-0.141l-9.897,40.16l14.507-32.119 C28.22-14.557,26.166-19.592,28.136-22.596z"/><linearGradient id="SVGID_11_" x1="-1764.165" x2="-1787.921" y1="-182.371" y2="-206.126" gradientTransform="matrix(0.0175 -0.9998 0.9998 0.0175 242.4325 -1776.2124)" gradientUnits="userSpaceOnUse"><stop offset="0" style="stop-color:#f8f4bd"/><stop offset="1" style="stop-color:#f6c324"/></linearGradient><polygon fill="url(#SVGID_11_)" points="14.974 -23.838 22.518 -23.707 17.827 17.423"/><linearGradient id="SVGID_12_" x1="-1966.084" x2="-1989.841" y1="-531.781" y2="-555.538" gradientTransform="matrix(-0.289 -0.9573 0.9573 -0.289 -40.5367 -2053.3152)" gradientUnits="userSpaceOnUse"><stop offset="0" style="stop-color:#f8f4bd"/><stop offset="1" style="stop-color:#f6c324"/></linearGradient><polygon fill="url(#SVGID_12_)" points="2.497 -20.991 9.722 -23.172 17.827 17.423"/><linearGradient id="SVGID_13_" x1="-2051.205" x2="-2074.961" y1="-926.758" y2="-950.514" gradientTransform="matrix(-0.5678 -0.8232 0.8232 -0.5678 -393.8899 -2230.8245)" gradientUnits="userSpaceOnUse"><stop offset="0" style="stop-color:#f8f4bd"/><stop offset="1" style="stop-color:#f6c324"/></linearGradient><polygon fill="url(#SVGID_13_)" points="-8.511 -14.468 -2.299 -18.752 17.827 17.423"/><linearGradient id="SVGID_14_" x1="-2011.143" x2="-2034.899" y1="-1327.855" y2="-1351.611" gradientTransform="matrix(-0.7922 -0.6102 0.6102 -0.7922 -784.8516 -2290.5408)" gradientUnits="userSpaceOnUse"><stop offset="0" style="stop-color:#f8f4bd"/><stop offset="1" style="stop-color:#f6c324"/></linearGradient><polygon fill="url(#SVGID_14_)" points="-17 -4.889 -12.394 -10.868 17.827 17.423"/><linearGradient id="SVGID_15_" x1="-1850.797" x2="-1874.554" y1="-1697.764" y2="-1721.521" gradientTransform="matrix(-0.9408 -0.3388 0.3388 -0.9408 -1175.7799 -2228.3142)" gradientUnits="userSpaceOnUse"><stop offset="0" style="stop-color:#f8f4bd"/><stop offset="1" style="stop-color:#f6c324"/></linearGradient><polygon fill="url(#SVGID_15_)" points="-22.153 6.825 -19.596 -.275 17.827 17.423"/><linearGradient id="SVGID_16_" x1="-1585.343" x2="-1609.099" y1="-2001.619" y2="-2025.374" gradientTransform="matrix(-0.9994 -0.035 0.035 -0.9994 -1529.3188 -2050.458)" gradientUnits="userSpaceOnUse"><stop offset="0" style="stop-color:#f8f4bd"/><stop offset="1" style="stop-color:#f6c324"/></linearGradient><polygon fill="url(#SVGID_16_)" points="-23.479 19.552 -23.214 12.011 17.827 17.423"/><linearGradient id="SVGID_17_" x1="-1239.841" x2="-1263.597" y1="-2209.407" y2="-2233.163" gradientTransform="matrix(-0.9623 0.2722 -0.2722 -0.9623 -1811.5742 -1772.5779)" gradientUnits="userSpaceOnUse"><stop offset="0" style="stop-color:#f8f4bd"/><stop offset="1" style="stop-color:#f6c324"/></linearGradient><polygon fill="url(#SVGID_17_)" points="-20.85 32.077 -22.905 24.815 17.827 17.423"/><linearGradient id="SVGID_18_" x1="-846.71" x2="-870.465" y1="-2301.154" y2="-2324.909" gradientTransform="matrix(-0.833 0.5533 -0.5533 -0.833 -1994.3612 -1421.5929)" gradientUnits="userSpaceOnUse"><stop offset="0" style="stop-color:#f8f4bd"/><stop offset="1" style="stop-color:#f6c324"/></linearGradient><polygon fill="url(#SVGID_18_)" points="-14.52 43.197 -18.694 36.912 17.827 17.423"/><linearGradient id="SVGID_19_" x1="-444.133" x2="-467.888" y1="-2268.712" y2="-2292.467" gradientTransform="matrix(-0.624 0.7814 -0.7814 -0.624 -2061.2605 -1032.0088)" gradientUnits="userSpaceOnUse"><stop offset="0" style="stop-color:#f8f4bd"/><stop offset="1" style="stop-color:#f6c324"/></linearGradient><polygon fill="url(#SVGID_19_)" points="-5.092 51.854 -10.989 47.143 17.827 17.423"/><linearGradient id="SVGID_20_" x1="-71.678" x2="-95.432" y1="-2115.289" y2="-2139.043" gradientTransform="matrix(-0.3553 0.9348 -0.9348 -0.3553 -2006.9253 -639.9352)" gradientUnits="userSpaceOnUse"><stop offset="0" style="stop-color:#f8f4bd"/><stop offset="1" style="stop-color:#f6c324"/></linearGradient><polygon fill="url(#SVGID_20_)" points="6.53 57.211 -.525 54.531 17.827 17.423"/><linearGradient id="SVGID_21_" x1="236.656" x2="212.9" y1="-1854.086" y2="-1877.842" gradientTransform="matrix(-0.0525 0.9986 -0.9986 -0.0525 -1833.7872 -283.6466)" gradientUnits="userSpaceOnUse"><stop offset="0" style="stop-color:#f8f4bd"/><stop offset="1" style="stop-color:#f6c324"/></linearGradient><polygon fill="url(#SVGID_21_)" points="19.232 58.756 11.697 58.361 17.827 17.423"/><linearGradient id="SVGID_22_" x1="449.692" x2="425.938" y1="-1512.124" y2="-1535.878" gradientTransform="matrix(0.2553 0.9669 -0.9669 0.2553 -1561.0364 3.5325)" gradientUnits="userSpaceOnUse"><stop offset="0" style="stop-color:#f8f4bd"/><stop offset="1" style="stop-color:#f6c324"/></linearGradient><polygon fill="url(#SVGID_22_)" points="31.8 56.35 24.505 58.275 17.827 17.423"/><linearGradient id="SVGID_23_" x1="548.889" x2="525.136" y1="-1121.431" y2="-1145.184" gradientTransform="matrix(0.5386 0.8426 -0.8426 0.5386 -1213.9526 192.7388)" gradientUnits="userSpaceOnUse"><stop offset="0" style="stop-color:#f8f4bd"/><stop offset="1" style="stop-color:#f6c324"/></linearGradient><polygon fill="url(#SVGID_23_)" points="43.031 50.213 36.675 54.279 17.827 17.423"/><linearGradient id="SVGID_24_" x1="523.284" x2="499.529" y1="-718.545" y2="-742.3" gradientTransform="matrix(0.7704 0.6376 -0.6376 0.7704 -824.7704 266.8534)" gradientUnits="userSpaceOnUse"><stop offset="0" style="stop-color:#f8f4bd"/><stop offset="1" style="stop-color:#f6c324"/></linearGradient><polygon fill="url(#SVGID_24_)" points="51.849 40.941 47.04 46.754 17.827 17.423"/><linearGradient id="SVGID_25_" x1="376.332" x2="352.579" y1="-343.106" y2="-366.86" gradientTransform="matrix(0.9284 0.3716 -0.3716 0.9284 -432.2479 218.4997)" gradientUnits="userSpaceOnUse"><stop offset="0" style="stop-color:#f8f4bd"/><stop offset="1" style="stop-color:#f6c324"/></linearGradient><polygon fill="url(#SVGID_25_)" points="57.411 29.414 54.607 36.419 17.827 17.423"/></g><defs><filter id="Adobe_OpacityMaskFilter_2_" width="82.512" height="82.594" x="-23.479" y="-23.838" filterUnits="userSpaceOnUse"><feColorMatrix type="matrix" values="1 0 0 0 0 0 1 0 0 0 0 0 1 0 0 0 0 0 1 0"/></filter></defs><mask id="SVGID_26_" width="82.512" height="82.594" x="-23.479" y="-23.838" maskUnits="userSpaceOnUse"><g filter="url(#Adobe_OpacityMaskFilter_2_)"><radialGradient id="SVGID_27_" cx="17.827" cy="17.423" r="16.846" gradientUnits="userSpaceOnUse"><stop offset="0" style="stop-color:#f2f2f2"/><stop offset=".83" style="stop-color:#000"/></radialGradient><circle cx="17.827" cy="17.423" r="16.847" fill="url(#SVGID_27_)"/></g></mask><g mask="url(#SVGID_26_)"><linearGradient id="SVGID_28_" x1="51.038" x2="27.281" y1="28.243" y2="4.487" gradientUnits="userSpaceOnUse"><stop offset="0" style="stop-color:#f8f4bd"/><stop offset="1" style="stop-color:#f6c324"/></linearGradient><polygon fill="url(#SVGID_28_)" points="59.033 13.849 59.033 21.395 17.827 17.423"/><linearGradient id="SVGID_29_" x1="-301.907" x2="-325.663" y1="224.04" y2="200.284" gradientTransform="matrix(0.9521 -0.3057 0.3057 0.9521 271.7104 -288.0294)" gradientUnits="userSpaceOnUse"><stop offset="0" style="stop-color:#f8f4bd"/><stop offset="1" style="stop-color:#f6c324"/></linearGradient><polygon fill="url(#SVGID_29_)" points="55.968 1.423 58.274 8.608 17.827 17.423"/><linearGradient id="SVGID_30_" x1="-697.614" x2="-721.369" y1="301.913" y2="278.158" gradientTransform="matrix(0.8131 -0.5821 0.5821 0.8131 442.6139 -644.6782)" gradientUnits="userSpaceOnUse"><stop offset="0" style="stop-color:#f8f4bd"/><stop offset="1" style="stop-color:#f6c324"/></linearGradient><polygon fill="url(#SVGID_30_)" points="49.251 -9.47 53.643 -3.335 17.827 17.423"/><linearGradient id="SVGID_31_" x1="-1098.857" x2="-1122.611" y1="255.212" y2="231.458" gradientTransform="matrix(0.5963 -0.8028 0.8028 0.5963 496.7917 -1036.359)" gradientUnits="userSpaceOnUse"><stop offset="0" style="stop-color:#f8f4bd"/><stop offset="1" style="stop-color:#f6c324"/></linearGradient><path fill="url(#SVGID_31_)" d="M38.414-15.981L17.827,17.423L45.583-13.29L41.3-16.472 C40.335-16.328,39.375-16.164,38.414-15.981z"/><linearGradient id="SVGID_32_" x1="-1465.425" x2="-1489.182" y1="88.61" y2="64.853" gradientTransform="matrix(0.3223 -0.9466 0.9466 0.3223 427.2014 -1426.2578)" gradientUnits="userSpaceOnUse"><stop offset="0" style="stop-color:#f8f4bd"/><stop offset="1" style="stop-color:#f6c324"/></linearGradient><path fill="url(#SVGID_32_)" d="M28.136-22.596l-0.412-0.141l-9.897,40.16l14.507-32.119 C28.22-14.557,26.166-19.592,28.136-22.596z"/><linearGradient id="SVGID_33_" x1="-1764.165" x2="-1787.921" y1="-182.371" y2="-206.126" gradientTransform="matrix(0.0175 -0.9998 0.9998 0.0175 242.4325 -1776.2124)" gradientUnits="userSpaceOnUse"><stop offset="0" style="stop-color:#f8f4bd"/><stop offset="1" style="stop-color:#f6c324"/></linearGradient><polygon fill="url(#SVGID_33_)" points="14.974 -23.838 22.518 -23.707 17.827 17.423"/><linearGradient id="SVGID_34_" x1="-1966.084" x2="-1989.841" y1="-531.781" y2="-555.538" gradientTransform="matrix(-0.289 -0.9573 0.9573 -0.289 -40.5367 -2053.3152)" gradientUnits="userSpaceOnUse"><stop offset="0" style="stop-color:#f8f4bd"/><stop offset="1" style="stop-color:#f6c324"/></linearGradient><polygon fill="url(#SVGID_34_)" points="2.497 -20.991 9.722 -23.172 17.827 17.423"/><linearGradient id="SVGID_35_" x1="-2051.205" x2="-2074.961" y1="-926.758" y2="-950.514" gradientTransform="matrix(-0.5678 -0.8232 0.8232 -0.5678 -393.8899 -2230.8245)" gradientUnits="userSpaceOnUse"><stop offset="0" style="stop-color:#f8f4bd"/><stop offset="1" style="stop-color:#f6c324"/></linearGradient><polygon fill="url(#SVGID_35_)" points="-8.511 -14.468 -2.299 -18.752 17.827 17.423"/><linearGradient id="SVGID_36_" x1="-2011.143" x2="-2034.899" y1="-1327.855" y2="-1351.611" gradientTransform="matrix(-0.7922 -0.6102 0.6102 -0.7922 -784.8516 -2290.5408)" gradientUnits="userSpaceOnUse"><stop offset="0" style="stop-color:#f8f4bd"/><stop offset="1" style="stop-color:#f6c324"/></linearGradient><polygon fill="url(#SVGID_36_)" points="-17 -4.889 -12.394 -10.868 17.827 17.423"/><linearGradient id="SVGID_37_" x1="-1850.797" x2="-1874.554" y1="-1697.764" y2="-1721.521" gradientTransform="matrix(-0.9408 -0.3388 0.3388 -0.9408 -1175.7799 -2228.3142)" gradientUnits="userSpaceOnUse"><stop offset="0" style="stop-color:#f8f4bd"/><stop offset="1" style="stop-color:#f6c324"/></linearGradient><polygon fill="url(#SVGID_37_)" points="-22.153 6.825 -19.596 -.275 17.827 17.423"/><linearGradient id="SVGID_38_" x1="-1585.343" x2="-1609.099" y1="-2001.619" y2="-2025.374" gradientTransform="matrix(-0.9994 -0.035 0.035 -0.9994 -1529.3188 -2050.458)" gradientUnits="userSpaceOnUse"><stop offset="0" style="stop-color:#f8f4bd"/><stop offset="1" style="stop-color:#f6c324"/></linearGradient><polygon fill="url(#SVGID_38_)" points="-23.479 19.552 -23.214 12.011 17.827 17.423"/><linearGradient id="SVGID_39_" x1="-1239.841" x2="-1263.597" y1="-2209.407" y2="-2233.163" gradientTransform="matrix(-0.9623 0.2722 -0.2722 -0.9623 -1811.5742 -1772.5779)" gradientUnits="userSpaceOnUse"><stop offset="0" style="stop-color:#f8f4bd"/><stop offset="1" style="stop-color:#f6c324"/></linearGradient><polygon fill="url(#SVGID_39_)" points="-20.85 32.077 -22.905 24.815 17.827 17.423"/><linearGradient id="SVGID_40_" x1="-846.71" x2="-870.465" y1="-2301.154" y2="-2324.909" gradientTransform="matrix(-0.833 0.5533 -0.5533 -0.833 -1994.3612 -1421.5929)" gradientUnits="userSpaceOnUse"><stop offset="0" style="stop-color:#f8f4bd"/><stop offset="1" style="stop-color:#f6c324"/></linearGradient><polygon fill="url(#SVGID_40_)" points="-14.52 43.197 -18.694 36.912 17.827 17.423"/><linearGradient id="SVGID_41_" x1="-444.133" x2="-467.888" y1="-2268.712" y2="-2292.467" gradientTransform="matrix(-0.624 0.7814 -0.7814 -0.624 -2061.2605 -1032.0088)" gradientUnits="userSpaceOnUse"><stop offset="0" style="stop-color:#f8f4bd"/><stop offset="1" style="stop-color:#f6c324"/></linearGradient><polygon fill="url(#SVGID_41_)" points="-5.092 51.854 -10.989 47.143 17.827 17.423"/><linearGradient id="SVGID_42_" x1="-71.678" x2="-95.432" y1="-2115.289" y2="-2139.043" gradientTransform="matrix(-0.3553 0.9348 -0.9348 -0.3553 -2006.9253 -639.9352)" gradientUnits="userSpaceOnUse"><stop offset="0" style="stop-color:#f8f4bd"/><stop offset="1" style="stop-color:#f6c324"/></linearGradient><polygon fill="url(#SVGID_42_)" points="6.53 57.211 -.525 54.531 17.827 17.423"/><linearGradient id="SVGID_43_" x1="236.656" x2="212.9" y1="-1854.086" y2="-1877.842" gradientTransform="matrix(-0.0525 0.9986 -0.9986 -0.0525 -1833.7872 -283.6466)" gradientUnits="userSpaceOnUse"><stop offset="0" style="stop-color:#f8f4bd"/><stop offset="1" style="stop-color:#f6c324"/></linearGradient><polygon fill="url(#SVGID_43_)" points="19.232 58.756 11.697 58.361 17.827 17.423"/><linearGradient id="SVGID_44_" x1="449.692" x2="425.938" y1="-1512.124" y2="-1535.878" gradientTransform="matrix(0.2553 0.9669 -0.9669 0.2553 -1561.0364 3.5325)" gradientUnits="userSpaceOnUse"><stop offset="0" style="stop-color:#f8f4bd"/><stop offset="1" style="stop-color:#f6c324"/></linearGradient><polygon fill="url(#SVGID_44_)" points="31.8 56.35 24.505 58.275 17.827 17.423"/><linearGradient id="SVGID_45_" x1="548.889" x2="525.136" y1="-1121.431" y2="-1145.184" gradientTransform="matrix(0.5386 0.8426 -0.8426 0.5386 -1213.9526 192.7388)" gradientUnits="userSpaceOnUse"><stop offset="0" style="stop-color:#f8f4bd"/><stop offset="1" style="stop-color:#f6c324"/></linearGradient><polygon fill="url(#SVGID_45_)" points="43.031 50.213 36.675 54.279 17.827 17.423"/><linearGradient id="SVGID_46_" x1="523.284" x2="499.529" y1="-718.545" y2="-742.3" gradientTransform="matrix(0.7704 0.6376 -0.6376 0.7704 -824.7704 266.8534)" gradientUnits="userSpaceOnUse"><stop offset="0" style="stop-color:#f8f4bd"/><stop offset="1" style="stop-color:#f6c324"/></linearGradient><polygon fill="url(#SVGID_46_)" points="51.849 40.941 47.04 46.754 17.827 17.423"/><linearGradient id="SVGID_47_" x1="376.332" x2="352.579" y1="-343.106" y2="-366.86" gradientTransform="matrix(0.9284 0.3716 -0.3716 0.9284 -432.2479 218.4997)" gradientUnits="userSpaceOnUse"><stop offset="0" style="stop-color:#f8f4bd"/><stop offset="1" style="stop-color:#f6c324"/></linearGradient><polygon fill="url(#SVGID_47_)" points="57.411 29.414 54.607 36.419 17.827 17.423"/></g><linearGradient id="SVGID_48_" x1="12.659" x2="22.596" y1="11.78" y2="22.18" gradientUnits="userSpaceOnUse"><stop offset="0" style="stop-color:#fbcc3d"/><stop offset="1" style="stop-color:#f7e72e"/></linearGradient><circle cx="17.922" cy="17.288" r="7.28" fill="url(#SVGID_48_)" stroke="#F9F2A8" stroke-width=".347"/><linearGradient id="SVGID_49_" x1="17.375" x2="12.06" y1="16.882" y2="12.492" gradientUnits="userSpaceOnUse"><stop offset="0" style="stop-color:#fbd925"/><stop offset="1" style="stop-color:#fff"/></linearGradient><path fill="url(#SVGID_49_)" d="M16.574,15.325c1.686-1.687,3.711-2.62,5.387-2.65c-1.105-1.03-2.582-1.667-4.213-1.667 c-3.414,0-6.181,2.768-6.181,6.181c0,2.097,1.046,3.945,2.643,5.064C13.411,20.434,14.322,17.577,16.574,15.325z"/></g></svg>