<?xml version="1.0" encoding="UTF-8"?>
<!-- Generator: Adobe Illustrator 14.0.0, SVG Export Plug-In . SVG Version: 6.00 Build 43363)  -->
<!DOCTYPE svg PUBLIC "-//W3C//DTD SVG 1.0//EN" "http://www.w3.org/TR/2001/REC-SVG-20010904/DTD/svg10.dtd">
<svg version="1.0" id="Layer_1" xmlns="http://www.w3.org/2000/svg" xmlns:xlink="http://www.w3.org/1999/xlink" x="0px" y="0px" width="34.838px" height="34.639px" viewBox="0 0 34.838 34.639" enable-background="new 0 0 34.838 34.639" xml:space="preserve"><script xmlns="" id="__gaOptOutExtension"/>
<g>
	<defs>
		<filter id="Adobe_OpacityMaskFilter" filterUnits="userSpaceOnUse" x="1.687" y="1.053" width="32.469" height="32.469">
			<feColorMatrix type="matrix" values="1 0 0 0 0  0 1 0 0 0  0 0 1 0 0  0 0 0 1 0"/>
		</filter>
	</defs>
	<mask maskUnits="userSpaceOnUse" x="1.687" y="1.053" width="32.469" height="32.469" id="SVGID_1_">
		<g filter="url(#Adobe_OpacityMaskFilter)">
			<radialGradient id="SVGID_2_" cx="17.9214" cy="17.2881" r="16.2344" gradientUnits="userSpaceOnUse">
				<stop offset="0.3297" style="stop-color:#FFFFFF"/>
				<stop offset="1" style="stop-color:#000000"/>
			</radialGradient>
			<circle fill="url(#SVGID_2_)" cx="17.921" cy="17.288" r="16.234"/>
		</g>
	</mask>
	<radialGradient id="SVGID_3_" cx="17.9214" cy="17.2881" r="16.2344" gradientUnits="userSpaceOnUse">
		<stop offset="0" style="stop-color:#F7E72E"/>
		<stop offset="1" style="stop-color:#FFFFFF"/>
	</radialGradient>
	<circle mask="url(#SVGID_1_)" fill="url(#SVGID_3_)" cx="17.921" cy="17.288" r="16.234"/>
	<defs>
		<filter id="Adobe_OpacityMaskFilter_1_" filterUnits="userSpaceOnUse" x="-23.479" y="-23.838" width="82.512" height="82.594">
			<feColorMatrix type="matrix" values="1 0 0 0 0  0 1 0 0 0  0 0 1 0 0  0 0 0 1 0"/>
		</filter>
	</defs>
	<mask maskUnits="userSpaceOnUse" x="-23.479" y="-23.838" width="82.512" height="82.594" id="SVGID_4_">
		<g filter="url(#Adobe_OpacityMaskFilter_1_)">
			<radialGradient id="SVGID_5_" cx="17.8267" cy="17.4229" r="16.8462" gradientUnits="userSpaceOnUse">
				<stop offset="0" style="stop-color:#F2F2F2"/>
				<stop offset="0.8297" style="stop-color:#000000"/>
			</radialGradient>
			<circle fill="url(#SVGID_5_)" cx="17.827" cy="17.423" r="16.847"/>
		</g>
	</mask>
	<g mask="url(#SVGID_4_)">
		<linearGradient id="SVGID_6_" gradientUnits="userSpaceOnUse" x1="51.0376" y1="28.2432" x2="27.2812" y2="4.4868">
			<stop offset="0" style="stop-color:#F8F4BD"/>
			<stop offset="1" style="stop-color:#F6C324"/>
		</linearGradient>
		<polygon fill="url(#SVGID_6_)" points="59.033,13.849 59.033,21.395 17.827,17.423   "/>
		
			<linearGradient id="SVGID_7_" gradientUnits="userSpaceOnUse" x1="-301.9067" y1="224.04" x2="-325.6631" y2="200.2836" gradientTransform="matrix(0.9521 -0.3057 0.3057 0.9521 271.7104 -288.0294)">
			<stop offset="0" style="stop-color:#F8F4BD"/>
			<stop offset="1" style="stop-color:#F6C324"/>
		</linearGradient>
		<polygon fill="url(#SVGID_7_)" points="55.968,1.423 58.274,8.608 17.827,17.423   "/>
		
			<linearGradient id="SVGID_8_" gradientUnits="userSpaceOnUse" x1="-697.6143" y1="301.9131" x2="-721.3692" y2="278.1581" gradientTransform="matrix(0.8131 -0.5821 0.5821 0.8131 442.6139 -644.6782)">
			<stop offset="0" style="stop-color:#F8F4BD"/>
			<stop offset="1" style="stop-color:#F6C324"/>
		</linearGradient>
		<polygon fill="url(#SVGID_8_)" points="49.251,-9.47 53.643,-3.335 17.827,17.423   "/>
		
			<linearGradient id="SVGID_9_" gradientUnits="userSpaceOnUse" x1="-1098.8569" y1="255.2119" x2="-1122.6105" y2="231.4584" gradientTransform="matrix(0.5963 -0.8028 0.8028 0.5963 496.7917 -1036.359)">
			<stop offset="0" style="stop-color:#F8F4BD"/>
			<stop offset="1" style="stop-color:#F6C324"/>
		</linearGradient>
		<path fill="url(#SVGID_9_)" d="M38.414-15.981L17.827,17.423L45.583-13.29L41.3-16.472C40.335-16.328,39.375-16.164,38.414-15.981    z"/>
		
			<linearGradient id="SVGID_10_" gradientUnits="userSpaceOnUse" x1="-1465.4248" y1="88.6104" x2="-1489.182" y2="64.8531" gradientTransform="matrix(0.3223 -0.9466 0.9466 0.3223 427.2014 -1426.2578)">
			<stop offset="0" style="stop-color:#F8F4BD"/>
			<stop offset="1" style="stop-color:#F6C324"/>
		</linearGradient>
		<path fill="url(#SVGID_10_)" d="M28.136-22.596l-0.412-0.141l-9.897,40.16l14.507-32.119    C28.22-14.557,26.166-19.592,28.136-22.596z"/>
		
			<linearGradient id="SVGID_11_" gradientUnits="userSpaceOnUse" x1="-1764.165" y1="-182.3706" x2="-1787.9208" y2="-206.1263" gradientTransform="matrix(0.0175 -0.9998 0.9998 0.0175 242.4325 -1776.2124)">
			<stop offset="0" style="stop-color:#F8F4BD"/>
			<stop offset="1" style="stop-color:#F6C324"/>
		</linearGradient>
		<polygon fill="url(#SVGID_11_)" points="14.974,-23.838 22.518,-23.707 17.827,17.423   "/>
		
			<linearGradient id="SVGID_12_" gradientUnits="userSpaceOnUse" x1="-1966.084" y1="-531.7808" x2="-1989.8411" y2="-555.5379" gradientTransform="matrix(-0.289 -0.9573 0.9573 -0.289 -40.5367 -2053.3152)">
			<stop offset="0" style="stop-color:#F8F4BD"/>
			<stop offset="1" style="stop-color:#F6C324"/>
		</linearGradient>
		<polygon fill="url(#SVGID_12_)" points="2.497,-20.991 9.722,-23.172 17.827,17.423   "/>
		
			<linearGradient id="SVGID_13_" gradientUnits="userSpaceOnUse" x1="-2051.2051" y1="-926.7578" x2="-2074.9607" y2="-950.5135" gradientTransform="matrix(-0.5678 -0.8232 0.8232 -0.5678 -393.8899 -2230.8245)">
			<stop offset="0" style="stop-color:#F8F4BD"/>
			<stop offset="1" style="stop-color:#F6C324"/>
		</linearGradient>
		<polygon fill="url(#SVGID_13_)" points="-8.511,-14.468 -2.299,-18.752 17.827,17.423   "/>
		
			<linearGradient id="SVGID_14_" gradientUnits="userSpaceOnUse" x1="-2011.1431" y1="-1327.8555" x2="-2034.8988" y2="-1351.6112" gradientTransform="matrix(-0.7922 -0.6102 0.6102 -0.7922 -784.8516 -2290.5408)">
			<stop offset="0" style="stop-color:#F8F4BD"/>
			<stop offset="1" style="stop-color:#F6C324"/>
		</linearGradient>
		<polygon fill="url(#SVGID_14_)" points="-17,-4.889 -12.394,-10.868 17.827,17.423   "/>
		
			<linearGradient id="SVGID_15_" gradientUnits="userSpaceOnUse" x1="-1850.7969" y1="-1697.7637" x2="-1874.554" y2="-1721.5208" gradientTransform="matrix(-0.9408 -0.3388 0.3388 -0.9408 -1175.7799 -2228.3142)">
			<stop offset="0" style="stop-color:#F8F4BD"/>
			<stop offset="1" style="stop-color:#F6C324"/>
		</linearGradient>
		<polygon fill="url(#SVGID_15_)" points="-22.153,6.825 -19.596,-0.275 17.827,17.423   "/>
		
			<linearGradient id="SVGID_16_" gradientUnits="userSpaceOnUse" x1="-1585.3428" y1="-2001.6187" x2="-1609.0985" y2="-2025.3744" gradientTransform="matrix(-0.9994 -0.035 0.035 -0.9994 -1529.3188 -2050.458)">
			<stop offset="0" style="stop-color:#F8F4BD"/>
			<stop offset="1" style="stop-color:#F6C324"/>
		</linearGradient>
		<polygon fill="url(#SVGID_16_)" points="-23.479,19.552 -23.214,12.011 17.827,17.423   "/>
		
			<linearGradient id="SVGID_17_" gradientUnits="userSpaceOnUse" x1="-1239.8408" y1="-2209.4072" x2="-1263.5966" y2="-2233.1628" gradientTransform="matrix(-0.9623 0.2722 -0.2722 -0.9623 -1811.5742 -1772.5779)">
			<stop offset="0" style="stop-color:#F8F4BD"/>
			<stop offset="1" style="stop-color:#F6C324"/>
		</linearGradient>
		<polygon fill="url(#SVGID_17_)" points="-20.85,32.077 -22.905,24.815 17.827,17.423   "/>
		
			<linearGradient id="SVGID_18_" gradientUnits="userSpaceOnUse" x1="-846.71" y1="-2301.1543" x2="-870.4649" y2="-2324.9092" gradientTransform="matrix(-0.833 0.5533 -0.5533 -0.833 -1994.3612 -1421.5929)">
			<stop offset="0" style="stop-color:#F8F4BD"/>
			<stop offset="1" style="stop-color:#F6C324"/>
		</linearGradient>
		<polygon fill="url(#SVGID_18_)" points="-14.52,43.197 -18.694,36.912 17.827,17.423   "/>
		
			<linearGradient id="SVGID_19_" gradientUnits="userSpaceOnUse" x1="-444.1328" y1="-2268.7119" x2="-467.8878" y2="-2292.4668" gradientTransform="matrix(-0.624 0.7814 -0.7814 -0.624 -2061.2605 -1032.0088)">
			<stop offset="0" style="stop-color:#F8F4BD"/>
			<stop offset="1" style="stop-color:#F6C324"/>
		</linearGradient>
		<polygon fill="url(#SVGID_19_)" points="-5.092,51.854 -10.989,47.143 17.827,17.423   "/>
		
			<linearGradient id="SVGID_20_" gradientUnits="userSpaceOnUse" x1="-71.6782" y1="-2115.2891" x2="-95.4324" y2="-2139.0432" gradientTransform="matrix(-0.3553 0.9348 -0.9348 -0.3553 -2006.9253 -639.9352)">
			<stop offset="0" style="stop-color:#F8F4BD"/>
			<stop offset="1" style="stop-color:#F6C324"/>
		</linearGradient>
		<polygon fill="url(#SVGID_20_)" points="6.53,57.211 -0.525,54.531 17.827,17.423   "/>
		
			<linearGradient id="SVGID_21_" gradientUnits="userSpaceOnUse" x1="236.6558" y1="-1854.0859" x2="212.9001" y2="-1877.8417" gradientTransform="matrix(-0.0525 0.9986 -0.9986 -0.0525 -1833.7872 -283.6466)">
			<stop offset="0" style="stop-color:#F8F4BD"/>
			<stop offset="1" style="stop-color:#F6C324"/>
		</linearGradient>
		<polygon fill="url(#SVGID_21_)" points="19.232,58.756 11.697,58.361 17.827,17.423   "/>
		
			<linearGradient id="SVGID_22_" gradientUnits="userSpaceOnUse" x1="449.6919" y1="-1512.124" x2="425.9377" y2="-1535.8783" gradientTransform="matrix(0.2553 0.9669 -0.9669 0.2553 -1561.0364 3.5325)">
			<stop offset="0" style="stop-color:#F8F4BD"/>
			<stop offset="1" style="stop-color:#F6C324"/>
		</linearGradient>
		<polygon fill="url(#SVGID_22_)" points="31.8,56.35 24.505,58.275 17.827,17.423   "/>
		
			<linearGradient id="SVGID_23_" gradientUnits="userSpaceOnUse" x1="548.8892" y1="-1121.4307" x2="525.1357" y2="-1145.1842" gradientTransform="matrix(0.5386 0.8426 -0.8426 0.5386 -1213.9526 192.7388)">
			<stop offset="0" style="stop-color:#F8F4BD"/>
			<stop offset="1" style="stop-color:#F6C324"/>
		</linearGradient>
		<polygon fill="url(#SVGID_23_)" points="43.031,50.213 36.675,54.279 17.827,17.423   "/>
		
			<linearGradient id="SVGID_24_" gradientUnits="userSpaceOnUse" x1="523.2837" y1="-718.5454" x2="499.5294" y2="-742.2996" gradientTransform="matrix(0.7704 0.6376 -0.6376 0.7704 -824.7704 266.8534)">
			<stop offset="0" style="stop-color:#F8F4BD"/>
			<stop offset="1" style="stop-color:#F6C324"/>
		</linearGradient>
		<polygon fill="url(#SVGID_24_)" points="51.849,40.941 47.04,46.754 17.827,17.423   "/>
		
			<linearGradient id="SVGID_25_" gradientUnits="userSpaceOnUse" x1="376.3325" y1="-343.1064" x2="352.579" y2="-366.86" gradientTransform="matrix(0.9284 0.3716 -0.3716 0.9284 -432.2479 218.4997)">
			<stop offset="0" style="stop-color:#F8F4BD"/>
			<stop offset="1" style="stop-color:#F6C324"/>
		</linearGradient>
		<polygon fill="url(#SVGID_25_)" points="57.411,29.414 54.607,36.419 17.827,17.423   "/>
	</g>
	<defs>
		<filter id="Adobe_OpacityMaskFilter_2_" filterUnits="userSpaceOnUse" x="-23.479" y="-23.838" width="82.512" height="82.594">
			<feColorMatrix type="matrix" values="1 0 0 0 0  0 1 0 0 0  0 0 1 0 0  0 0 0 1 0"/>
		</filter>
	</defs>
	<mask maskUnits="userSpaceOnUse" x="-23.479" y="-23.838" width="82.512" height="82.594" id="SVGID_26_">
		<g filter="url(#Adobe_OpacityMaskFilter_2_)">
			<radialGradient id="SVGID_27_" cx="17.8267" cy="17.4229" r="16.8462" gradientUnits="userSpaceOnUse">
				<stop offset="0" style="stop-color:#F2F2F2"/>
				<stop offset="0.8297" style="stop-color:#000000"/>
			</radialGradient>
			<circle fill="url(#SVGID_27_)" cx="17.827" cy="17.423" r="16.847"/>
		</g>
	</mask>
	<g mask="url(#SVGID_26_)">
		<linearGradient id="SVGID_28_" gradientUnits="userSpaceOnUse" x1="51.0376" y1="28.2432" x2="27.2812" y2="4.4868">
			<stop offset="0" style="stop-color:#F8F4BD"/>
			<stop offset="1" style="stop-color:#F6C324"/>
		</linearGradient>
		<polygon fill="url(#SVGID_28_)" points="59.033,13.849 59.033,21.395 17.827,17.423   "/>
		
			<linearGradient id="SVGID_29_" gradientUnits="userSpaceOnUse" x1="-301.9067" y1="224.04" x2="-325.6631" y2="200.2836" gradientTransform="matrix(0.9521 -0.3057 0.3057 0.9521 271.7104 -288.0294)">
			<stop offset="0" style="stop-color:#F8F4BD"/>
			<stop offset="1" style="stop-color:#F6C324"/>
		</linearGradient>
		<polygon fill="url(#SVGID_29_)" points="55.968,1.423 58.274,8.608 17.827,17.423   "/>
		
			<linearGradient id="SVGID_30_" gradientUnits="userSpaceOnUse" x1="-697.6143" y1="301.9131" x2="-721.3692" y2="278.1581" gradientTransform="matrix(0.8131 -0.5821 0.5821 0.8131 442.6139 -644.6782)">
			<stop offset="0" style="stop-color:#F8F4BD"/>
			<stop offset="1" style="stop-color:#F6C324"/>
		</linearGradient>
		<polygon fill="url(#SVGID_30_)" points="49.251,-9.47 53.643,-3.335 17.827,17.423   "/>
		
			<linearGradient id="SVGID_31_" gradientUnits="userSpaceOnUse" x1="-1098.8569" y1="255.2119" x2="-1122.6105" y2="231.4584" gradientTransform="matrix(0.5963 -0.8028 0.8028 0.5963 496.7917 -1036.359)">
			<stop offset="0" style="stop-color:#F8F4BD"/>
			<stop offset="1" style="stop-color:#F6C324"/>
		</linearGradient>
		<path fill="url(#SVGID_31_)" d="M38.414-15.981L17.827,17.423L45.583-13.29L41.3-16.472    C40.335-16.328,39.375-16.164,38.414-15.981z"/>
		
			<linearGradient id="SVGID_32_" gradientUnits="userSpaceOnUse" x1="-1465.4248" y1="88.6104" x2="-1489.182" y2="64.8531" gradientTransform="matrix(0.3223 -0.9466 0.9466 0.3223 427.2014 -1426.2578)">
			<stop offset="0" style="stop-color:#F8F4BD"/>
			<stop offset="1" style="stop-color:#F6C324"/>
		</linearGradient>
		<path fill="url(#SVGID_32_)" d="M28.136-22.596l-0.412-0.141l-9.897,40.16l14.507-32.119    C28.22-14.557,26.166-19.592,28.136-22.596z"/>
		
			<linearGradient id="SVGID_33_" gradientUnits="userSpaceOnUse" x1="-1764.165" y1="-182.3706" x2="-1787.9208" y2="-206.1263" gradientTransform="matrix(0.0175 -0.9998 0.9998 0.0175 242.4325 -1776.2124)">
			<stop offset="0" style="stop-color:#F8F4BD"/>
			<stop offset="1" style="stop-color:#F6C324"/>
		</linearGradient>
		<polygon fill="url(#SVGID_33_)" points="14.974,-23.838 22.518,-23.707 17.827,17.423   "/>
		
			<linearGradient id="SVGID_34_" gradientUnits="userSpaceOnUse" x1="-1966.084" y1="-531.7808" x2="-1989.8411" y2="-555.5379" gradientTransform="matrix(-0.289 -0.9573 0.9573 -0.289 -40.5367 -2053.3152)">
			<stop offset="0" style="stop-color:#F8F4BD"/>
			<stop offset="1" style="stop-color:#F6C324"/>
		</linearGradient>
		<polygon fill="url(#SVGID_34_)" points="2.497,-20.991 9.722,-23.172 17.827,17.423   "/>
		
			<linearGradient id="SVGID_35_" gradientUnits="userSpaceOnUse" x1="-2051.2051" y1="-926.7578" x2="-2074.9607" y2="-950.5135" gradientTransform="matrix(-0.5678 -0.8232 0.8232 -0.5678 -393.8899 -2230.8245)">
			<stop offset="0" style="stop-color:#F8F4BD"/>
			<stop offset="1" style="stop-color:#F6C324"/>
		</linearGradient>
		<polygon fill="url(#SVGID_35_)" points="-8.511,-14.468 -2.299,-18.752 17.827,17.423   "/>
		
			<linearGradient id="SVGID_36_" gradientUnits="userSpaceOnUse" x1="-2011.1431" y1="-1327.8555" x2="-2034.8988" y2="-1351.6112" gradientTransform="matrix(-0.7922 -0.6102 0.6102 -0.7922 -784.8516 -2290.5408)">
			<stop offset="0" style="stop-color:#F8F4BD"/>
			<stop offset="1" style="stop-color:#F6C324"/>
		</linearGradient>
		<polygon fill="url(#SVGID_36_)" points="-17,-4.889 -12.394,-10.868 17.827,17.423   "/>
		
			<linearGradient id="SVGID_37_" gradientUnits="userSpaceOnUse" x1="-1850.7969" y1="-1697.7637" x2="-1874.554" y2="-1721.5208" gradientTransform="matrix(-0.9408 -0.3388 0.3388 -0.9408 -1175.7799 -2228.3142)">
			<stop offset="0" style="stop-color:#F8F4BD"/>
			<stop offset="1" style="stop-color:#F6C324"/>
		</linearGradient>
		<polygon fill="url(#SVGID_37_)" points="-22.153,6.825 -19.596,-0.275 17.827,17.423   "/>
		
			<linearGradient id="SVGID_38_" gradientUnits="userSpaceOnUse" x1="-1585.3428" y1="-2001.6187" x2="-1609.0985" y2="-2025.3744" gradientTransform="matrix(-0.9994 -0.035 0.035 -0.9994 -1529.3188 -2050.458)">
			<stop offset="0" style="stop-color:#F8F4BD"/>
			<stop offset="1" style="stop-color:#F6C324"/>
		</linearGradient>
		<polygon fill="url(#SVGID_38_)" points="-23.479,19.552 -23.214,12.011 17.827,17.423   "/>
		
			<linearGradient id="SVGID_39_" gradientUnits="userSpaceOnUse" x1="-1239.8408" y1="-2209.4072" x2="-1263.5966" y2="-2233.1628" gradientTransform="matrix(-0.9623 0.2722 -0.2722 -0.9623 -1811.5742 -1772.5779)">
			<stop offset="0" style="stop-color:#F8F4BD"/>
			<stop offset="1" style="stop-color:#F6C324"/>
		</linearGradient>
		<polygon fill="url(#SVGID_39_)" points="-20.85,32.077 -22.905,24.815 17.827,17.423   "/>
		
			<linearGradient id="SVGID_40_" gradientUnits="userSpaceOnUse" x1="-846.71" y1="-2301.1543" x2="-870.4649" y2="-2324.9092" gradientTransform="matrix(-0.833 0.5533 -0.5533 -0.833 -1994.3612 -1421.5929)">
			<stop offset="0" style="stop-color:#F8F4BD"/>
			<stop offset="1" style="stop-color:#F6C324"/>
		</linearGradient>
		<polygon fill="url(#SVGID_40_)" points="-14.52,43.197 -18.694,36.912 17.827,17.423   "/>
		
			<linearGradient id="SVGID_41_" gradientUnits="userSpaceOnUse" x1="-444.1328" y1="-2268.7119" x2="-467.8878" y2="-2292.4668" gradientTransform="matrix(-0.624 0.7814 -0.7814 -0.624 -2061.2605 -1032.0088)">
			<stop offset="0" style="stop-color:#F8F4BD"/>
			<stop offset="1" style="stop-color:#F6C324"/>
		</linearGradient>
		<polygon fill="url(#SVGID_41_)" points="-5.092,51.854 -10.989,47.143 17.827,17.423   "/>
		
			<linearGradient id="SVGID_42_" gradientUnits="userSpaceOnUse" x1="-71.6782" y1="-2115.2891" x2="-95.4324" y2="-2139.0432" gradientTransform="matrix(-0.3553 0.9348 -0.9348 -0.3553 -2006.9253 -639.9352)">
			<stop offset="0" style="stop-color:#F8F4BD"/>
			<stop offset="1" style="stop-color:#F6C324"/>
		</linearGradient>
		<polygon fill="url(#SVGID_42_)" points="6.53,57.211 -0.525,54.531 17.827,17.423   "/>
		
			<linearGradient id="SVGID_43_" gradientUnits="userSpaceOnUse" x1="236.6558" y1="-1854.0859" x2="212.9001" y2="-1877.8417" gradientTransform="matrix(-0.0525 0.9986 -0.9986 -0.0525 -1833.7872 -283.6466)">
			<stop offset="0" style="stop-color:#F8F4BD"/>
			<stop offset="1" style="stop-color:#F6C324"/>
		</linearGradient>
		<polygon fill="url(#SVGID_43_)" points="19.232,58.756 11.697,58.361 17.827,17.423   "/>
		
			<linearGradient id="SVGID_44_" gradientUnits="userSpaceOnUse" x1="449.6919" y1="-1512.124" x2="425.9377" y2="-1535.8783" gradientTransform="matrix(0.2553 0.9669 -0.9669 0.2553 -1561.0364 3.5325)">
			<stop offset="0" style="stop-color:#F8F4BD"/>
			<stop offset="1" style="stop-color:#F6C324"/>
		</linearGradient>
		<polygon fill="url(#SVGID_44_)" points="31.8,56.35 24.505,58.275 17.827,17.423   "/>
		
			<linearGradient id="SVGID_45_" gradientUnits="userSpaceOnUse" x1="548.8892" y1="-1121.4307" x2="525.1357" y2="-1145.1842" gradientTransform="matrix(0.5386 0.8426 -0.8426 0.5386 -1213.9526 192.7388)">
			<stop offset="0" style="stop-color:#F8F4BD"/>
			<stop offset="1" style="stop-color:#F6C324"/>
		</linearGradient>
		<polygon fill="url(#SVGID_45_)" points="43.031,50.213 36.675,54.279 17.827,17.423   "/>
		
			<linearGradient id="SVGID_46_" gradientUnits="userSpaceOnUse" x1="523.2837" y1="-718.5454" x2="499.5294" y2="-742.2996" gradientTransform="matrix(0.7704 0.6376 -0.6376 0.7704 -824.7704 266.8534)">
			<stop offset="0" style="stop-color:#F8F4BD"/>
			<stop offset="1" style="stop-color:#F6C324"/>
		</linearGradient>
		<polygon fill="url(#SVGID_46_)" points="51.849,40.941 47.04,46.754 17.827,17.423   "/>
		
			<linearGradient id="SVGID_47_" gradientUnits="userSpaceOnUse" x1="376.3325" y1="-343.1064" x2="352.579" y2="-366.86" gradientTransform="matrix(0.9284 0.3716 -0.3716 0.9284 -432.2479 218.4997)">
			<stop offset="0" style="stop-color:#F8F4BD"/>
			<stop offset="1" style="stop-color:#F6C324"/>
		</linearGradient>
		<polygon fill="url(#SVGID_47_)" points="57.411,29.414 54.607,36.419 17.827,17.423   "/>
	</g>
	<linearGradient id="SVGID_48_" gradientUnits="userSpaceOnUse" x1="12.6587" y1="11.7798" x2="22.596" y2="22.1795">
		<stop offset="0" style="stop-color:#FBCC3D"/>
		<stop offset="1" style="stop-color:#F7E72E"/>
	</linearGradient>
	<circle fill="url(#SVGID_48_)" stroke="#F9F2A8" stroke-width="0.3466" cx="17.922" cy="17.288" r="7.28"/>
	<linearGradient id="SVGID_49_" gradientUnits="userSpaceOnUse" x1="17.375" y1="16.8823" x2="12.0596" y2="12.4915">
		<stop offset="0" style="stop-color:#FBD925"/>
		<stop offset="1" style="stop-color:#FFFFFF"/>
	</linearGradient>
	<path fill="url(#SVGID_49_)" d="M16.574,15.325c1.686-1.687,3.711-2.62,5.387-2.65c-1.105-1.03-2.582-1.667-4.213-1.667   c-3.414,0-6.181,2.768-6.181,6.181c0,2.097,1.046,3.945,2.643,5.064C13.411,20.434,14.322,17.577,16.574,15.325z"/>
</g>
</svg>